<svg xmlns="http://www.w3.org/2000/svg" viewBox="0 0 24 24">
    <path fill="#fff" d="M20.923,7.772c-1.05,0-2.1,0-3.151,0c0.283-1.29,0.565-2.579,0.848-3.869
	c0.291-1.328-1.859-1.896-2.151-0.562c-0.324,1.477-0.647,2.954-0.971,4.431c-1.714,0-3.428,0-5.143,0
	c0.289-1.316,0.577-2.633,0.866-3.949c0.291-1.328-1.859-1.896-2.151-0.562C8.74,4.765,8.411,6.268,8.081,7.772
	c-1.204,0-2.407,0-3.611,0c-1.435,0-1.438,2.115,0,2.115c1.049,0,2.098,0,3.147,0c-0.297,1.355-0.594,2.711-0.891,4.066
	c-1.216,0-2.433,0-3.649,0c-1.435,0-1.438,2.115,0,2.115c1.062,0,2.124,0,3.186,0c-0.294,1.343-0.589,2.686-0.883,4.03
	c-0.291,1.328,1.859,1.896,2.151,0.562c0.335-1.531,0.671-3.061,1.006-4.592c1.714,0,3.428,0,5.143,0c-0.3,1.37-0.6,2.74-0.901,4.11
	c-0.291,1.328,1.859,1.896,2.151,0.562c0.341-1.557,0.683-3.115,1.024-4.672c1.192,0,2.384,0,3.576,0c1.435,0,1.438-2.115,0-2.115
	c-1.037,0-2.075,0-3.112,0c0.297-1.355,0.594-2.71,0.891-4.066c1.205,0,2.409,0,3.614,0C22.358,9.887,22.36,7.772,20.923,7.772z
	 M14.143,13.953c-1.714,0-3.428,0-5.143,0c0.297-1.355,0.594-2.71,0.891-4.066c1.714,0,3.428,0,5.143,0
	C14.737,11.242,14.44,12.597,14.143,13.953z"/>
</svg>
